<svg xmlns="http://www.w3.org/2000/svg" class="leaflet-zoom-animated" width="1466" height="844" viewBox="-122 -70 1466 844" style="transform: translate3d(-122px, -70px, 0px) scale(1);">

<script type="text/ecmascript"><![CDATA[
 function clickFun(msg)
 {
 console.log('msg',msg)
 console.log('event',event)
 alert('啦啦：'+msg)
}
]]>
</script>

<g
id="m"
   onclick="window.clickFun('fa')">
<path class="leaflet-interactive" stroke="black" stroke-opacity="1" stroke-width="2" stroke-linecap="round" stroke-linejoin="round" stroke-dasharray="1,6" fill="none" d="M135 276L138 275L138 273L135 270L135 259L132 256L127 255L125 257L123 255"/><path class="leaflet-interactive" stroke="green" stroke-opacity="1" stroke-width="2" stroke-linecap="round" stroke-linejoin="round" fill="none" d="M585 548L585 548M584 548L582 548L584 548M590 549L591 548L590 549M580 551L579 550L580 551M587 553L587 553M575 474L574 476L573 474L571 478L570 475L569 478L566 477L565 479L562 480L557 479L556 482L555 481L543 484L542 486L537 488L541 495L538 498L534 498L531 492L533 483L530 482L525 484L524 481L519 480L514 483L514 481L512 482M520 481L520 481M548 502L548 502M548 502L548 502M548 502L548 502M548 502L548 502M549 501L549 501M549 501L549 501M559 482L559 482M566 480L566 480M567 479L567 479M567 479L567 479M567 479L566 482L565 480L567 479M567 479L567 479M569 623L569 623M569 623L569 623M569 623L569 623M569 623L569 623M569 479L569 479M575 475L575 475M575 474L575 474M576 473L575 474M575 474L575 474M576 473L576 473M576 473L576 473M576 473L576 473M582 473L581 472L579 474L578 473L580 470L579 471L576 467L576 473M577 477L577 477M578 470L578 470M579 474L579 474M579 474L579 474M579 474L580 474M581 474L581 474M581 478L581 478M584 473L582 473M583 470L583 470M613 459L612 462L611 461L609 463L609 465L605 465L602 467L599 466L597 468L592 467L590 470L588 468L589 467L587 467L586 471L584 469L583 470M583 470L583 470M583 470L583 470M583 471L583 471M583 470L583 470M583 470L583 470M583 470L583 470M583 470L583 470M583 473L583 473M583 472L583 472M583 470L583 470M583 470L584 472M583 471L583 471M583 470L583 470M583 470L583 470M583 471L583 471M583 470L583 470M583 470L583 470M584 472L584 472M584 470L584 470M584 472L584 472M584 472L584 472M584 472L584 472M584 472L584 472M584 470L584 470M584 473L584 473M584 473L584 473M584 472L584 473M584 473L584 473M584 473L584 473M584 473L584 473M584 473L584 473M584 472L584 472M584 472L584 472M584 473L584 473M584 472L584 472M584 472L584 472M584 472L584 472M584 472L584 472M584 472L584 472M584 472L584 472M584 472L584 472M584 472L584 472M584 472L584 472M584 472L584 472M584 473L584 473M584 472L584 472M584 473L584 473M584 472L584 472M584 472L584 472M585 471L585 471M585 471L585 471M585 471L585 471M585 471L585 471M585 471L585 471M596 468L596 468M598 468L598 468M601 467L601 467M601 467L601 467M613 459L613 459M613 459L613 459M613 459L613 459M613 458L613 459M613 458L613 458M613 458L613 458M613 458L613 458M627 445L626 449L619 457L613 458M613 458L613 458M616 459L616 459M627 449L627 449M627 445L627 445M627 445L627 445M627 445L628 446L626 446L627 445M630 445L627 445M627 447L627 447M628 447L628 447M630 446L630 446M630 446L630 446M630 446L631 445L629 447L630 446M630 446L630 446M630 445L630 445M630 445L630 445M630 445L630 445M633 445L630 445M631 445L631 445M631 445L631 445M633 445L633 445M637 440L634 441L635 442L633 445M633 445L633 445M633 445L633 445M633 444L633 444M634 443L634 443M637 437L637 437M637 439L637 439M637 440L637 440M646 434L644 433L644 435L640 433L639 434L641 436L638 437L638 439L638 436L636 436L637 440M639 434L639 434M642 434L642 434M643 434L643 434M643 435L643 435M644 435L644 435M644 430L644 430M644 435L644 435M644 432L644 432M644 431L644 431M644 434L644 434M644 430L644 430M645 435L645 435M645 432L645 432M645 431L645 431M646 434L646 434M646 434L646 434M646 434L646 434M646 434L646 434M661 403L659 402L656 405L655 412L651 413L652 414L649 416L649 419L647 420L649 417L644 419L646 419L647 422L644 425L645 428L642 431L644 433L646 431L646 434M646 424L646 424M646 431L646 431M646 433L646 433M647 422L647 422M647 422L647 422M648 424L648 424M648 424L648 424M648 424L648 424M648 424L648 424M648 427L648 427M649 424L649 424M649 423L649 423M657 406L657 406M658 413L658 413M658 413L658 413M658 413L658 413M660 225L658 225L654 233L641 239L641 244L636 249L633 248L631 252L626 247L624 249L624 253L623 252L621 256L624 260L625 259L624 261L626 262L627 260L627 263L637 264L638 268L640 269L638 269L636 272L637 275L640 276L641 278L645 277L647 275L646 274L648 274L651 271L651 269L657 267L660 268L661 271L664 270M698 234L698 236L695 239L686 239L676 244L672 247L673 248L671 250L669 250L670 251L667 250L668 252L662 254L661 251L667 248L662 243L667 237L669 237L669 235L671 234L670 232L674 229L669 223L664 222L659 224L660 225M661 404L661 404M671 387L667 387L668 392L666 392L668 396L666 398L665 397L662 401L661 399L661 403M661 403L661 403M661 403L661 403M662 404L662 404M664 270L666 273L672 271L674 273L678 273L678 279L675 282L671 280L659 285L660 286L658 288L657 287L657 289L653 293L652 290L650 292L652 294L649 295L647 299L645 299L641 305L642 306L640 306L639 308L639 310L651 317L658 331L659 339L665 343L665 345L670 350L670 353L664 350L660 352L664 355M664 368L664 368M664 355L669 359L673 367L670 364L660 367L668 375L671 375L673 377L671 378M665 271L665 271M665 271L665 271M665 271L665 271M665 271L665 271M665 271L665 271M665 271L665 271M665 271L665 271M665 271L665 271M666 271L666 271M666 400L666 400M666 400L666 400M666 400L666 400M666 400L666 400M666 400L666 400M666 371L666 372M669 393L669 393M671 378L669 379L671 381L671 387M671 372L671 372M671 378L671 378M671 378L671 378M671 378L671 378M671 281L671 281M673 375L673 375M673 375L673 375M673 375L673 375M673 375L673 375M673 375L673 375M673 375L673 375M673 375L673 375M673 375L673 375M673 272L673 272M676 374L676 374M676 374L676 374M676 374L676 374M676 374L676 374M677 374L677 374M677 372L677 372M677 377L677 377M677 372L677 372M683 243L683 243M683 243L683 243M684 244L684 244M685 241L685 241M519 509L526 502L535 501L539 499L543 499L546 501L547 505L542 509L540 516L537 517L531 523L519 519L519 509M524 488L524 488M528 649L533 647L528 649M534 643L536 643L534 643M540 640L541 641L540 640M540 488L540 490L537 489L539 487L540 488M541 488L539 486L541 486L541 488M542 489L541 490L542 489M551 536L552 535L551 536M552 647L553 646L552 647M552 644L553 643L552 644M553 643L553 643M553 546L552 547L553 546M553 634L554 635L553 634M554 646L554 646M555 548L555 548M556 641L558 641L556 641M557 545L558 544L557 545M560 537L560 537M562 545L562 545M563 549L564 548L563 549M563 543L564 542L563 543M563 624L563 624M563 669L564 668L563 669M563 667L563 667M563 481L565 481L563 481M563 632L565 632L563 632M564 675L564 675M564 670L564 670M564 672L565 671L564 672M565 675L565 675M568 676L568 676M569 507L569 507M572 640L573 639L572 640M575 474L575 474M576 630L576 630M577 646L577 646M578 511L579 510L578 511M579 642L579 642M579 646L585 642L586 643L582 647L579 646M580 632L580 632M580 632L581 633L580 632M583 616L584 615L583 616M585 609L587 609L585 609M586 610L586 610M586 640L586 640M587 632L588 631L587 632M587 619L587 619M587 602L588 601L587 602M588 646L588 646M588 602L588 602M588 615L589 614L588 615M588 607L589 606L588 607M588 547L589 546L588 547M590 650L590 650M590 642L590 642M590 609L591 608L590 609M591 647L592 648L591 647M593 637L595 637L593 637M596 573L596 573M597 620L597 620M597 636L597 636M601 622L602 621L602 623L601 622M602 489L602 489M602 487L604 488L602 487M603 626L602 627L603 626M603 618L604 617L603 618M608 614L610 614L608 614M610 613L610 613M611 544L611 544M612 491L613 494L611 493L613 492L612 491M616 458L614 458L616 458M617 611L619 611L617 611M618 606L617 607L618 606M623 610L624 609L623 610M642 437L643 436L642 437M644 457L644 457M645 418L645 418M649 461L649 455L660 439L666 435L670 437L670 445L667 450L664 464L659 470L658 478L655 472L651 469L649 461M652 415L653 414L652 415M661 402L660 401L661 402M667 352L671 355L670 356L662 352L663 350L667 352M665 468L665 468M666 475L665 476L666 475M669 358L666 356L668 356L669 358M669 357L670 358L669 357M670 374L669 375L670 374M670 359L671 360L670 359M671 371L671 371M673 371L674 372L673 371M673 379L672 378L673 379M674 374L674 376L671 375L670 373L671 372L674 374M674 377L675 378L674 377M674 379L674 379M675 372L676 371L675 372M675 376L676 377L675 376M675 369L675 369M676 375L676 375M683 242L682 243L683 242M684 250L685 249L684 250M686 430L689 430L686 430M689 427L691 426L691 428L689 427M699 427L701 427L699 427M623 558L624 559L622 559L624 559L622 559L623 558M560 688L560 688M558 689L558 689M560 689L560 689"/><path class="leaflet-interactive" stroke="#F2F7F7" stroke-opacity="1" stroke-width="0.2" stroke-linecap="round" stroke-linejoin="round" stroke-dasharray="1,10" fill="none" d="M304 292L298 289L297 290L295 288L293 289L291 287L284 287L265 291L261 297L260 296L255 298L253 296L245 299L242 302L229 302L227 298L224 299L221 297L220 300L218 300L214 304L210 304L207 302L202 303L198 301L195 307L194 306L194 309L192 310L191 314L182 317M395 341L392 341L388 348L384 348L384 353L380 351L380 349L378 349L377 354L377 352L375 351L373 353L371 351L370 352L368 349L369 346L367 346L367 344L366 345L366 343L364 343L361 340L356 342L355 341L354 343L350 341L347 342L341 338L333 339L324 333L319 334L311 331L303 322L303 320L306 317L304 313L305 310L302 308L301 304L305 297L300 293L304 292M334 250L316 255L308 259L310 262L312 260L313 269L320 273L322 279L317 280L315 282L315 284L319 286L320 292L317 293L308 290L304 292M435 317L442 320L446 316L443 313L443 310L448 305L447 301L448 302L449 300L452 300L453 299L451 297L452 295L453 296L455 294L455 291L452 287L453 286L449 280L450 277L444 271L444 269L441 270L437 267L436 268L431 264L431 262L430 263L429 261L424 260L422 257L421 258L423 262L419 260L410 252L411 251L407 249L405 251L402 250L400 253L391 248L387 248L386 257L384 256L385 257L382 260L383 261L380 261L378 263L372 259L369 261L365 259L359 260L357 254L350 254L351 253L349 252L344 252L343 248L338 248L334 250M380 194L375 198L377 202L376 207L368 210L367 212L365 209L361 213L359 213L351 221L350 226L340 227L338 241L334 247L334 250M470 273L468 273L463 268L459 267L459 264L461 263L460 260L465 256L466 252L469 249L467 244L459 245L455 249L449 247L444 248L442 249L444 252L441 255L437 254L434 251L435 250L430 250L430 244L426 245L426 243L424 243L424 241L421 239L417 237L415 238L420 233L423 232L424 226L421 222L411 223L411 225L409 224L406 226L406 224L402 227L402 222L394 214L396 211L389 193M441 328L440 333L434 331L433 332L435 339L430 339L428 341L425 338L423 340L419 334L417 338L413 336L412 337L412 335L407 332L403 321L396 318L391 324L393 327L392 328L395 330L392 333L393 334L391 338L395 341M411 385L409 379L409 365L405 359L405 357L408 357L404 353L400 344L395 341M400 399L401 396L403 400L407 397L405 395L405 388L407 388L408 391L410 387L409 386L411 385M481 405L480 400L473 403L470 401L470 393L464 393L465 396L460 399L460 404L456 409L454 409L454 415L456 420L451 424L451 422L445 426L439 424L437 420L438 418L434 411L432 410L430 404L428 402L425 404L422 401L421 399L423 397L418 392L418 390L416 390L414 398L411 395L411 385M435 317L432 316L429 319L431 320L432 323L434 323L435 326L438 325L439 328L441 328M483 336L481 340L472 339L469 336L471 336L471 331L467 326L461 326L461 324L458 324L454 317L446 322L445 321L449 329L442 333L441 331L443 329L441 328M508 267L505 266L503 263L495 261L500 251L497 245L492 247L489 251L487 256L488 261L486 263L486 268L470 273M470 273L473 273L474 276L480 279L482 283L480 283L484 291L481 295L490 302L491 301L493 304L495 302L494 298L497 298L500 293L498 290L495 289L494 286L497 279L496 277L503 278M481 405L481 407L477 410L473 410L472 408L468 410L465 408L465 410L462 412L462 414L464 414L464 420L468 418L469 419L471 417L474 420L470 431L476 437L475 436L472 442M472 442L474 448L474 446L478 446L481 451L490 450L491 457L488 457L484 462M529 426L526 430L522 430L524 430L523 433L521 431L519 432L519 435L516 432L512 437L508 437L508 435L507 436L503 432L501 432L501 435L499 437L491 439L489 444L481 439L475 444L472 442M493 394L489 391L485 394L485 396L488 399L492 400L493 402L491 404L481 405M503 278L505 281L519 287L519 302L517 304L509 303L508 304L510 307L506 309L503 309L500 306L495 307L496 311L493 313L497 316L497 318L496 317L494 321L496 326L495 328L488 327L486 331L489 332L488 335L484 337L483 336M518 346L510 346L505 342L503 343L501 341L502 340L498 338L494 340L487 337L485 339L483 336M526 395L523 399L520 398L521 396L519 396L519 393L516 392L515 387L511 388L509 387L509 385L505 385L505 389L503 391L502 389L498 391L498 395L495 394L496 393L494 390L495 393L493 394M493 394L491 389L487 389L485 384L484 385L481 382L481 380L484 379L484 377L486 377L484 373L487 369L491 372L496 371L497 375L501 374L506 367L505 365L509 363L510 364L512 362L514 355L516 355L518 352L515 349M500 374L500 374M500 374L500 374M503 278L505 269L508 267M547 245L548 242L546 242L542 246L539 246L537 244L537 246L530 253L528 253L528 255L523 260L522 262L524 264L522 266L521 264L520 270L513 270L508 267M515 349L517 347L516 346L518 346M518 346L530 352M530 352L537 358L536 363L533 363L527 368L520 367L516 369L518 371L518 379L518 377L520 378L520 380L522 380L522 384L523 383L526 386M526 386L526 395M579 387L576 386L577 380L575 378L570 382L568 382L568 378L560 381L561 380L559 380L555 376L545 373L540 375L542 377L539 380L537 378L529 380L526 386M529 426L529 424L526 423L529 414L527 412L524 412L522 414L521 413L525 408L529 406L527 404L526 395M558 442L554 442L552 444L550 437L547 440L546 439L546 437L550 433L549 430L551 429L548 428L549 423L542 422L538 427L535 426L535 424L532 427L533 428L529 426M546 331L543 334L541 331L539 333L533 331L528 333L536 337L537 340L530 341L530 352M532 483L531 483M539 477L536 477L532 481L532 483M533 499L535 499M536 499L539 498M539 313L537 310L541 301L539 280L544 271L540 262L545 258L546 251L549 246L547 245M539 313L539 317L542 322L541 323L543 323L546 327L546 331M539 313L552 310L555 306L558 307L558 305L560 304L566 305L569 302L570 303L576 298L575 297L577 293L577 288M539 477L538 474L540 475L543 472L543 470L551 464L550 458L554 455L553 454L557 452L556 449L558 447L558 442M540 498L541 497M596 356L595 357L594 354L589 355L586 353L586 351L583 352L582 350L580 352L580 350L577 349L577 343L574 345L571 343L562 344L557 341L556 342L551 339L546 331M582 225L579 229L578 228L573 231L570 230L567 231L567 233L563 231L561 232L555 242L552 241L550 244L547 245M558 442L560 437L568 440L569 436L567 436L571 433L574 435L579 434M590 291L587 292L577 288M577 288L574 284L576 283L576 281L578 281L577 278L582 270L578 263L575 262L575 258L578 254L577 251L581 248L581 250L583 249L587 242L580 236L581 233M579 434L580 427L581 425L583 425L580 424L581 420L578 418L579 410L575 408L577 402L583 397L581 394L582 391L579 387M604 377L602 379L597 377L595 380L594 379L590 381L590 383L581 385L579 387M579 434L581 435L580 436L585 434L588 435L588 437L582 443L585 446L595 442L597 442L600 445L600 442L602 440M581 233L581 233M581 233L586 231L583 229L582 225M614 199L612 206L609 207L607 205L604 209L600 207L595 211L596 212L590 212L590 204L587 203L585 205L586 206L584 206L582 209L583 212L579 214L580 217L578 219L582 225M594 290L592 292L590 291M590 291L590 291M597 291L596 292L594 290M605 313L606 317L609 318L610 323L609 322L606 325L603 324L604 323L601 320L599 320L599 327L595 329L596 331L593 334L591 333L595 341L598 343L602 343L602 351L598 352L596 356M604 377L604 373L600 366L603 362L599 359L598 360L596 356M624 261L619 267L611 268L608 272L606 272L606 274L604 274L601 277L601 280L595 286L597 291M605 313L597 313L593 307L589 307L600 295L604 293L603 292L596 296L597 291M597 342L597 342M599 242L599 242M619 232L617 230L619 226L613 224L611 220L608 221L608 223L600 228L602 232L596 236L598 239L596 239L599 242M599 242L600 242M600 242L601 243M601 243L601 243M601 243L608 243M616 457L613 451L614 449L611 445L612 443L609 444L607 441L606 442L602 440M602 440L601 437L603 435L603 431L605 429L604 428L606 428L608 422L610 422L609 416L616 411L614 405L618 404L617 403L620 401L622 403L630 400L629 398L631 397M628 383L626 381L622 381L617 376L612 381L610 379L613 376L611 374L609 374L609 376L606 378L604 377M607 312L605 313M618 313L616 315L613 308L607 309L607 312M644 360L640 358L635 359L634 358L636 355L630 349L630 347L633 346L632 341L634 340L639 342L639 337L635 335L634 338L630 339L628 337L628 333L625 332L627 325L623 325L623 323L620 320L616 320L607 312M608 243L612 241M612 250L612 250M612 254L612 250M612 250L612 242M612 254L612 254M621 256L618 257L612 254M612 242L612 242M612 242L612 242M612 242L612 241M613 240L612 241M613 240L616 241L617 234M617 234L611 236L614 239L613 240M640 216L630 216L630 214L627 211L627 209L629 209L629 205L627 205L626 200L623 197L621 196L614 199M614 199L614 199M616 457L617 458M618 233L617 234M618 313L618 313M640 306L636 307L633 312L632 311L630 313L631 314L628 316L628 314L626 313L627 312L623 312L623 314L620 315L618 313M619 232L618 233M619 459L619 460M622 234L619 232M620 238L620 238M620 238L622 234M620 238L622 240L621 242L625 243M622 234L622 234M622 234L622 234M622 234L622 234M622 234L622 234M625 243L625 243M625 243L624 246L626 247M628 383L626 387L629 390L631 397M628 383L636 375L636 370L641 370L640 367L643 364L644 360M654 412L651 408L646 410L644 405L641 408L636 408L634 401L635 399L631 397M640 216L642 213L640 210L640 202L642 200L647 203L649 210L655 203L659 201L660 202L664 198L667 199L673 194L676 194L675 193L679 193L681 195L685 193L684 192L686 190L689 190L690 184M647 236L645 234L644 229L640 228L639 225L638 226L636 224L636 220L640 216M640 306L640 307M659 361L656 362L656 364L654 365L647 359L644 360M654 412L654 412M656 413L657 414M658 259L661 259M671 353L665 352L663 350L661 352L664 354L661 356L660 360L658 360L659 361M663 366L659 361M664 366L666 366M685 138L683 133L690 130L689 128L688 129L688 127L682 130L680 126L681 125L677 123L677 117L697 100L699 107L700 106L700 99L703 89L708 88L708 72L710 71L711 67L715 64L714 61L717 58L717 56L712 48L706 44L706 46L704 47L705 48L702 50L699 49L698 51L693 51L691 49L686 52L684 51L681 48L678 37L680 33L673 29L669 33L663 27L663 25L667 22L669 18L665 13M666 366L667 366M669 365L670 365M671 364L673 364M675 363L677 363M679 363L680 362M739 173L735 171L732 164L728 164L729 159L725 155L723 154L718 156L714 154L712 150L709 152L707 152L706 150L700 152L694 146L695 145L693 143L693 137L687 139L685 138M685 138L683 141L680 141L680 147L676 144L673 145L670 142L667 146L671 148L671 151L673 151L674 155L672 157L672 164L674 166L674 170L677 171L684 166L689 180L686 181L688 184L690 184M690 184L691 183L697 187L700 192L703 188L704 189L703 190L708 200L707 201L710 203L709 211L711 211L710 212L714 218L712 222L713 223M777 183L772 183L769 180L767 180L766 174L763 177L762 174L760 174L760 176L756 176L751 182L749 182L745 171L739 173M488 302L489 301L488 302"/><path class="leaflet-interactive" stroke="gray" stroke-opacity="1" stroke-width="0.7" stroke-linecap="round" stroke-linejoin="round" fill="none" d="M575 475L576 474L575 475M583 470L582 469L578 473L579 475L586 475L585 469L583 470"/><path class="leaflet-interactive" stroke="green" stroke-opacity="1" stroke-width="2" stroke-linecap="round" stroke-linejoin="round" fill="none" d="M123 255L123 251L120 245L124 242L123 239L125 234L135 231L135 228L138 229L143 226L145 231L151 229L152 230L155 227L156 222L158 220L167 221L169 218L172 217L172 215L177 213L178 214L179 212L186 208L195 205M179 349L175 346L175 342L179 339L179 341L182 344L185 340L183 333L178 326L178 320L182 317L173 312L171 305L172 301L158 299L154 297L155 295L150 296L147 291L148 286L145 283L141 282L141 280L138 279L131 279L130 276L135 276M179 349L179 349M483 461L481 459L480 461L475 463L476 464L474 466L468 466L466 469L462 467L460 469L459 466L455 471L450 467L446 471L441 470L439 473L439 477L442 481L441 487L438 485L435 486L435 482L433 480L424 483L419 475L411 474L413 472L412 471L414 470L413 467L415 463L410 463L408 461L409 460L406 454L408 450L400 450L395 453L393 452L395 450L393 442L395 441L400 431L402 432L403 429L406 428L405 425L407 421L406 406L403 405L403 407L400 404L400 400L394 394L390 399L391 402L388 404L379 398L372 397L362 405L356 406L350 413L344 415L336 414L331 416L331 410L325 406L326 404L322 400L319 403L315 400L314 401L308 398L304 398L298 404L298 409L296 411L293 408L294 401L292 399L282 403L274 403L270 400L266 402L263 399L262 402L258 396L257 398L252 397L251 392L248 394L244 390L242 390L240 384L235 386L233 385L232 382L225 379L222 375L220 375L217 372L217 370L216 371L210 369L208 375L206 375L204 371L197 367L195 368L188 361L183 362L179 357L179 349M195 205L195 196L196 193L200 191L198 190L202 188L202 182L198 174L198 164L195 161L193 162L193 160L194 158L198 158L199 156L205 156L207 154L208 155L214 152L216 155L223 155L219 148L227 125M227 125L229 122L237 126L247 126L249 128L255 125L258 122L256 109L258 103L261 101L268 100L272 89L281 89L283 90L283 93L281 94L293 107L297 109L302 108L305 112L307 111L309 114L311 114L313 122L318 127L319 130L319 135L317 137L319 142L315 147L316 153L323 157L346 159L363 170L369 170L368 173L371 177L374 186L380 194L389 193L415 197L431 195L441 198L444 202L452 203L465 209L472 207L472 211L478 212L480 209L498 201L504 200L506 198L526 199L536 196L542 191L547 184L557 179L556 175L552 172L551 169L552 164L557 157L562 157L564 160L576 163L585 156L586 152L596 152L605 147L609 138L612 136L619 135L620 132L622 134L629 130L635 131L635 129L640 132L646 132L648 130L648 127L645 122L643 122L641 118L634 113L632 109L624 108L619 115L613 111L606 111L602 114L598 110L597 106L601 104L601 100L604 95L603 94L611 77M512 482L506 480L505 481L499 476L497 476L495 471L498 467L497 465L488 465L483 461M515 664L515 652M527 546L533 558M538 593L537 602L535 604M555 694L565 692L567 690M598 651L606 642M611 77L623 83L631 77M631 77L641 71L639 67L640 64L643 61L643 58L650 44L656 39L656 28L653 26L649 26L649 24L654 18L661 13L667 13L673 10L681 11L689 9L694 11L695 13L697 12L699 15L702 15L702 17L707 15L711 17L714 20L713 21L715 21L718 24L716 26L721 31L720 34L723 36L722 39L725 43L727 50L726 51L728 51L727 54L731 60L732 69L735 70L734 77L738 82L744 81L748 82L751 85L756 84L763 92L770 94L768 98L772 104L770 107L771 109M632 608L637 596M638 549L638 562M648 513L642 525M670 480L662 491M677 458L680 444M771 109L774 114L791 114L793 111L792 110L794 110L797 107L801 107L810 102L820 101L819 103L816 104L814 108L816 113L815 117L811 118L811 120L809 121L810 123L808 127L808 132L806 134L807 138L804 140L805 141L797 154L797 158L789 156L784 153L779 159L775 159L773 161L775 163L777 174L777 184L775 191L767 194L769 196L768 197L765 194L765 192L761 190L759 199L755 199L750 205L740 205L743 212L741 215L729 213L729 209L727 208L723 211L722 215L717 222L708 226L698 234M771 109L771 109"/><path class="leaflet-interactive" stroke="#333" stroke-opacity="1" stroke-width="0.5" stroke-linecap="round" stroke-linejoin="round" stroke-dasharray="1,6" fill="#a9bfe8" fill-opacity="0.2" fill-rule="evenodd" d="M618 227L620 226L613 225L611 220L608 221L608 223L600 228L602 231L596 236L598 238L597 241L601 243L606 242L607 244L610 241L611 242L614 239L611 236L616 235L619 232L617 230L618 227z"/><path class="leaflet-interactive" stroke="#333" stroke-opacity="1" stroke-width="0.5" stroke-linecap="round" stroke-linejoin="round" stroke-dasharray="1,6" fill="#a9bfe8" fill-opacity="0.2" fill-rule="evenodd" d="M623 245L625 243L622 243L620 239L620 237L623 236L623 234L620 232L616 235L616 241L612 241L613 250L611 250L611 254L618 257L621 256L623 254L622 253L624 253L624 249L626 247L624 245L620 245L622 244zM623 245L624 244L623 245z"/><path class="leaflet-interactive" stroke="#333" stroke-opacity="1" stroke-width="0.5" stroke-linecap="round" stroke-linejoin="round" stroke-dasharray="1,6" fill="#4c74be" fill-opacity="0.2" fill-rule="evenodd" d="M620 226L617 227L617 231L623 235L620 236L622 241L621 242L625 242L624 245L631 252L633 248L636 249L641 244L640 243L642 238L647 235L644 232L643 228L640 228L639 225L638 226L635 223L640 216L630 216L627 210L628 208L629 209L629 205L627 205L626 200L622 196L614 198L612 206L609 207L607 205L603 209L601 206L595 211L596 212L590 212L590 204L586 203L586 205L582 209L583 212L579 213L579 219L583 229L586 230L580 235L581 237L585 238L586 244L582 250L579 249L578 255L575 257L575 261L579 264L582 270L577 277L578 281L574 283L575 287L581 290L585 290L587 292L590 291L590 293L593 290L595 292L597 291L595 286L601 280L600 279L603 274L605 274L606 271L608 273L612 267L619 267L623 263L625 260L623 260L620 256L618 257L611 254L611 250L613 250L612 241L610 241L607 244L605 242L600 243L598 241L597 242L598 238L596 236L602 232L600 227L608 224L608 221L611 220L611 222L614 225L620 226zM617 234L611 236L614 239L614 241L616 241L616 235zM623 245L620 245L623 245zM635 248L635 249z"/><path class="leaflet-interactive" stroke="#333" stroke-opacity="1" stroke-width="0.5" stroke-linecap="round" stroke-linejoin="round" stroke-dasharray="1,6" fill="#a9bfe8" fill-opacity="0.2" fill-rule="evenodd" d="M539 313L552 310L555 307L558 307L559 304L566 305L576 298L575 297L577 293L577 287L575 287L574 284L577 281L577 278L582 270L578 263L575 262L575 258L578 254L577 251L581 248L581 250L583 249L587 242L579 235L586 231L583 229L581 225L579 229L578 228L574 231L570 230L567 233L563 231L561 232L555 242L552 241L547 245L548 248L545 257L540 262L544 270L542 276L539 279L541 300L537 309L538 313z"/><path class="leaflet-interactive" stroke="#333" stroke-opacity="1" stroke-width="0.5" stroke-linecap="round" stroke-linejoin="round" stroke-dasharray="1,6" fill="#a9bfe8" fill-opacity="0.2" fill-rule="evenodd" d="M389 193L396 211L394 213L401 222L402 227L405 226L406 224L407 227L407 225L409 224L411 226L411 224L421 222L424 226L423 232L415 237L424 240L426 245L429 244L431 249L430 250L435 250L434 251L437 254L441 255L444 252L442 249L448 247L454 249L460 245L467 244L469 251L465 256L460 259L461 263L459 264L460 267L467 273L485 269L487 267L486 263L488 261L487 258L490 249L496 245L498 245L500 250L495 260L496 262L503 263L506 266L512 268L512 270L521 270L521 264L523 266L524 265L522 262L534 248L533 247L537 246L537 244L539 246L543 246L546 242L548 242L547 245L550 244L551 241L555 242L557 240L559 234L562 231L567 233L569 230L573 231L581 227L581 223L578 219L580 217L579 214L583 213L582 209L586 205L586 203L589 204L591 207L590 212L596 212L595 211L601 206L604 209L607 205L609 207L612 206L613 200L615 198L623 196L626 199L625 202L627 203L627 205L629 205L629 209L627 209L629 214L634 216L640 216L642 214L640 211L640 203L642 200L644 202L647 202L646 203L649 210L658 201L661 202L664 198L667 199L672 194L675 195L675 193L679 193L681 195L685 192L685 190L690 189L690 184L686 182L688 182L688 178L684 166L679 170L674 170L674 166L672 164L672 156L674 154L671 148L667 146L669 144L668 142L670 142L673 145L676 144L679 147L681 144L680 141L684 140L682 133L690 130L688 126L686 126L686 129L685 128L684 130L682 130L680 126L681 125L676 121L677 117L685 112L697 100L699 107L700 106L700 100L703 89L708 88L707 75L709 73L708 72L710 72L709 71L711 67L715 64L714 61L717 58L717 54L715 54L711 47L706 44L706 46L702 50L700 49L698 51L693 51L691 49L686 52L683 50L681 48L678 37L680 33L673 29L669 33L662 26L667 22L669 18L668 16L665 13L659 14L649 24L650 27L654 26L656 28L655 31L657 33L657 38L649 45L647 49L648 50L643 57L643 61L639 67L641 71L637 75L633 75L623 83L611 77L603 94L604 95L601 99L601 104L597 106L598 110L602 114L606 111L612 111L619 115L624 108L631 109L646 123L648 129L645 132L639 132L636 129L633 131L630 130L623 134L620 132L618 136L609 137L606 145L599 151L587 152L584 157L576 163L567 161L562 157L557 157L551 167L552 172L556 175L557 179L546 185L539 194L526 199L506 198L486 206L480 209L478 212L472 211L472 207L465 209L452 203L445 202L439 197L431 195L415 197L396 195L390 193z"/><path class="leaflet-interactive" stroke="#333" stroke-opacity="1" stroke-width="0.5" stroke-linecap="round" stroke-linejoin="round" stroke-dasharray="1,6" fill="#4c74be" fill-opacity="0.2" fill-rule="evenodd" d="M689 239L696 239L696 237L704 228L705 229L713 223L712 222L714 217L709 210L709 206L711 203L707 201L708 200L706 198L704 188L701 190L701 192L699 192L698 188L694 186L692 182L690 184L689 190L685 190L683 194L676 193L676 195L670 195L668 199L665 198L660 202L659 201L655 203L650 208L650 210L647 206L647 202L643 200L640 202L640 211L642 212L642 214L640 215L636 223L638 226L639 225L640 228L643 227L644 231L648 236L654 232L658 225L660 225L659 224L662 223L669 222L671 226L673 226L674 228L672 230L673 231L670 232L670 235L662 243L665 246L668 245L666 247L667 248L661 252L661 254L666 253L667 250L670 251L669 250L671 250L673 248L672 247L676 244L688 239zM678 246L678 246zM675 248L676 247L675 248zM679 247L679 247zM679 250L680 250zM683 242L683 243zM677 247L677 247zM657 229L658 228L657 229zM683 244L683 244zM684 250L685 249L684 250zM691 239L691 239z"/><path class="leaflet-interactive" stroke="#333" stroke-opacity="1" stroke-width="0.5" stroke-linecap="round" stroke-linejoin="round" stroke-dasharray="1,6" fill="#a9bfe8" fill-opacity="0.2" fill-rule="evenodd" d="M758 199L760 196L760 192L762 190L764 190L763 191L765 195L767 197L768 196L769 199L769 195L767 195L768 193L775 191L777 183L772 183L769 180L767 180L766 175L762 177L761 174L755 178L754 177L753 180L749 182L748 177L744 171L744 167L742 167L740 170L741 171L737 173L733 167L734 166L732 164L728 164L728 156L723 154L720 156L715 155L712 150L710 152L706 152L706 150L700 152L694 146L695 145L693 143L693 137L685 138L680 141L680 147L678 147L676 144L673 145L670 142L668 142L669 143L667 146L671 148L674 155L672 157L672 165L674 166L674 170L677 171L684 166L689 180L686 181L687 183L690 184L692 182L692 184L699 189L698 192L701 192L701 190L703 188L704 189L703 190L705 196L709 202L708 203L710 203L709 210L714 217L712 222L713 223L715 223L721 217L723 212L727 208L730 212L729 213L730 212L732 214L733 213L740 215L743 213L740 206L750 205L755 199L757 199z"/>
<path 
class="leaflet-interactive" 
stroke="#333" 
stroke-opacity="1" 
stroke-width="0.5" 
stroke-linecap="round" 
stroke-linejoin="round" 
stroke-dasharray="1,6" 
fill="red" 
fill-opacity="1" 
fill-rule="evenodd" 
onclick="clickFun('黑龙江省')"
d="M689 139L692 137L694 139L694 145L700 152L704 150L706 150L706 152L710 152L712 150L715 155L720 156L723 154L728 156L728 164L734 165L733 166L737 173L739 173L744 166L744 171L748 176L749 182L751 182L754 177L755 178L761 174L762 177L766 174L766 178L769 181L772 183L777 183L777 174L775 163L773 161L775 159L779 159L781 155L783 155L783 153L797 158L798 151L802 147L805 141L804 140L807 137L806 134L810 123L809 122L816 114L814 109L815 104L820 102L810 102L802 107L798 107L794 110L793 109L791 114L773 114L770 108L771 100L769 101L768 98L770 94L765 94L759 88L759 86L757 86L757 84L752 85L746 81L738 82L734 77L735 70L732 68L731 60L727 55L728 51L726 51L727 50L722 39L722 33L720 32L721 31L718 27L716 27L718 24L716 24L714 21L713 22L714 20L711 17L707 15L704 17L699 15L697 12L695 13L689 9L680 11L673 10L666 13L669 18L662 27L669 33L673 29L680 33L678 37L681 49L686 52L691 49L693 51L699 51L699 49L701 50L705 48L704 47L706 47L707 44L712 48L715 54L717 54L717 58L714 61L715 64L708 73L708 88L703 89L700 99L700 107L697 103L698 102L695 101L684 113L678 116L676 120L680 125L681 124L680 126L682 130L684 130L687 127L686 126L688 126L689 129L689 127L690 128L689 131L683 133L684 137L689 139z">
  <set attributeName="fill" to="blue" begin="mouseover"/>
</path>

<path class="leaflet-interactive" stroke="#333" stroke-opacity="1" stroke-width="0.5" stroke-linecap="round" stroke-linejoin="round" stroke-dasharray="1,6" fill="red" fill-opacity="0.2" fill-rule="evenodd" d="M659 361L660 364L664 366L670 364L671 362L664 355L661 356L661 360L658 360zM671 353L665 352L663 350L661 352L669 356L671 355zM669 357L666 356L669 358zM669 357L672 358L669 357zM667 356L666 355zM670 359L671 359zM670 359L670 359z"></path>

<path class="leaflet-interactive" stroke="#333" stroke-opacity="1" stroke-width="0.5" stroke-linecap="round" stroke-linejoin="round" stroke-dasharray="1,6" fill="#4c74be" fill-opacity="0.2" fill-rule="evenodd" d="M618 313L616 315L613 308L607 309L607 311L612 316L614 316L614 319L619 321L620 320L623 323L623 325L627 325L625 331L626 333L628 332L628 336L631 339L634 339L636 335L640 340L638 342L636 340L632 340L634 344L630 347L630 349L636 354L634 357L635 359L647 359L650 363L653 362L652 363L654 365L659 361L658 360L660 360L660 358L664 354L661 352L663 350L665 352L671 353L670 350L665 346L665 343L659 339L659 335L652 317L642 312L643 311L639 309L639 306L636 307L635 310L633 312L632 311L629 316L626 313L627 312L623 312L623 314L620 315L618 313z"/><path class="leaflet-interactive" stroke="#333" stroke-opacity="1" stroke-width="0.5" stroke-linecap="round" stroke-linejoin="round" stroke-dasharray="1,6" fill="#a9bfe8" fill-opacity="0.2" fill-rule="evenodd" d="M631 397L635 399L634 402L636 404L636 408L640 408L644 405L646 410L650 408L654 412L656 409L656 405L662 402L660 402L660 400L661 399L661 401L666 397L667 398L666 393L669 390L667 387L671 387L670 379L673 376L667 374L664 370L662 370L660 367L663 366L659 361L656 362L656 364L654 365L652 363L653 362L650 363L647 359L645 359L643 363L644 364L640 368L642 370L636 370L636 376L626 385L631 397zM673 375L675 375L671 372L670 373L672 375zM674 372L673 373zM674 379L674 379zM676 365L677 366L676 365zM673 371L674 372L673 370zM675 372L675 371zM671 386L672 385zM675 376L676 377L675 376zM676 370L675 369zM669 391L670 390zM674 377L675 377zM669 387L669 387zM662 406L662 406zM670 365L672 367L671 364zM670 395L670 394zM673 379L672 378L673 379zM676 376L676 376zM678 366L677 366zM670 395L670 395zM672 373L671 373zM676 375L675 375zM669 375L670 374L669 375zM660 408L660 408zM671 386L671 385zM672 378L671 379zM670 373L671 374zM671 371L670 371zM673 375L673 375zM674 379L674 378zM661 404L661 404zM680 373L680 373zM674 371L675 371zM674 377L675 376zM680 366L680 365zM661 402L660 402zM662 401L662 401zM676 375L676 375zM681 366L680 365zM673 375L674 375zM671 375L672 375zM660 401L661 401zM676 376L676 376zM673 375L673 375z"/><path class="leaflet-interactive" stroke="#333" stroke-opacity="1" stroke-width="0.5" stroke-linecap="round" stroke-linejoin="round" stroke-dasharray="1,6" fill="#a9bfe8" fill-opacity="0.2" fill-rule="evenodd" d="M610 321L610 323L609 322L606 325L604 325L603 322L599 320L599 327L595 329L595 333L590 334L595 341L598 343L601 341L602 343L602 350L599 351L596 354L596 356L598 359L604 362L600 365L606 378L609 374L611 374L613 376L610 379L612 381L617 376L622 381L626 380L627 383L634 378L636 375L636 371L641 370L640 367L644 363L644 361L641 358L635 358L635 353L633 353L634 352L632 352L630 349L630 347L633 346L633 340L636 340L637 342L639 342L640 340L637 335L635 335L634 338L630 339L628 337L628 333L625 332L627 324L622 325L623 323L620 320L616 320L612 315L610 315L607 312L605 316L607 318L609 317L610 321zM635 355L636 355zM611 379L611 379zM597 342L597 342z"/><path class="leaflet-interactive" stroke="#333" stroke-opacity="1" stroke-width="0.5" stroke-linecap="round" stroke-linejoin="round" stroke-dasharray="1,6" fill="#4c74be" fill-opacity="0.2" fill-rule="evenodd" d="M637 439L636 436L638 436L638 438L638 436L641 437L641 435L639 434L640 433L644 433L644 435L647 432L646 431L644 433L642 431L645 426L644 425L647 422L646 419L644 419L645 417L646 418L649 416L648 419L646 420L650 417L649 416L653 412L653 410L651 408L647 410L643 405L641 408L635 407L635 399L631 397L627 401L623 403L621 403L621 401L618 402L618 404L614 406L616 410L613 414L609 416L610 422L609 421L607 423L608 424L604 429L601 438L604 441L608 441L607 442L609 444L612 443L611 444L613 446L614 453L618 457L627 449L627 445L632 445L635 442L633 441L637 440zM630 445L629 446L631 445zM642 437L643 436L642 437zM644 431L644 431zM648 424L648 424zM628 447L628 446zM647 418L648 418zM628 445L626 446L628 446zM648 425L647 424zM644 425L645 424L644 425zM649 420L649 420zM644 431L645 431zM646 419L646 418zM650 419L650 419zM652 415L652 414zM650 416L650 416zM645 418L644 418z"/><path class="leaflet-interactive" stroke="#333" stroke-opacity="1" stroke-width="0.5" stroke-linecap="round" stroke-linejoin="round" stroke-dasharray="1,6" fill="#a9bfe8" fill-opacity="0.2" fill-rule="evenodd" d="M628 383L626 381L622 381L617 376L612 381L610 379L613 376L609 374L609 376L606 378L605 377L602 379L597 377L595 380L594 379L591 382L590 381L590 383L581 385L579 387L582 390L581 393L583 397L577 402L575 407L577 410L579 409L577 413L578 412L579 414L579 419L581 419L580 424L583 425L580 426L579 434L581 434L581 436L585 434L589 436L583 443L585 445L594 442L601 445L600 441L602 441L601 437L603 435L603 431L605 429L604 428L607 427L607 424L610 421L610 415L616 411L616 408L614 406L617 405L618 402L621 401L621 403L623 403L625 401L630 400L630 390L626 387L626 385L628 384z"/><path class="leaflet-interactive" stroke="#333" stroke-opacity="1" stroke-width="0.5" stroke-linecap="round" stroke-linejoin="round" stroke-dasharray="1,6" fill="#4c74be" fill-opacity="0.2" fill-rule="evenodd" d="M607 312L607 309L613 308L617 315L619 313L619 315L621 315L624 312L626 312L628 314L627 315L630 316L630 313L632 311L633 312L636 307L641 306L645 300L644 299L646 299L652 293L650 293L651 290L652 293L656 292L656 288L658 288L660 286L659 285L665 282L666 283L670 280L673 280L672 281L675 282L678 279L676 279L679 274L674 273L672 271L670 273L667 273L662 271L662 269L658 267L651 269L651 271L648 274L646 274L647 275L645 277L641 277L637 275L636 272L637 270L640 269L640 267L639 268L636 263L631 264L624 261L619 267L611 268L608 272L607 271L605 273L606 274L604 274L601 277L601 280L595 285L597 290L595 296L596 297L597 295L604 292L603 294L597 297L589 307L592 307L597 311L597 313L607 313zM657 266L657 266zM656 265L657 265zM660 288L659 288zM657 263L657 262zM659 260L659 260zM650 297L650 296zM655 266L655 265zM657 261L658 260zM665 271L665 271zM665 271L665 271zM665 271L665 271zM597 295L597 295z"/><path class="leaflet-interactive" stroke="#333" stroke-opacity="1" stroke-width="0.5" stroke-linecap="round" stroke-linejoin="round" stroke-dasharray="1,6" fill="#a9bfe8" fill-opacity="0.2" fill-rule="evenodd" d="M565 344L571 343L574 345L576 343L578 346L578 350L580 350L580 352L582 350L590 356L594 354L595 357L596 354L602 350L602 341L599 343L594 341L594 337L591 336L590 333L592 334L596 331L595 328L598 327L598 322L600 320L603 322L604 325L606 325L609 322L610 323L610 321L609 318L605 315L605 313L597 313L593 307L590 307L590 305L593 301L594 302L604 293L603 292L596 296L595 294L597 293L597 291L596 292L593 290L590 293L590 291L587 292L585 290L577 288L575 296L576 299L575 298L573 301L571 301L570 303L569 302L566 305L558 304L558 306L553 308L552 310L548 310L545 311L544 313L543 312L539 314L539 317L542 320L541 323L546 327L546 333L548 333L549 337L561 344L565 343zM577 345L577 345z"/><path class="leaflet-interactive" stroke="#333" stroke-opacity="1" stroke-width="0.5" stroke-linecap="round" stroke-linejoin="round" stroke-dasharray="1,6" fill="#4c74be" fill-opacity="0.2" fill-rule="evenodd" d="M546 333L546 331L543 334L541 331L540 333L533 331L528 333L532 334L532 336L534 336L537 340L531 340L529 343L530 352L537 359L535 364L534 363L527 368L520 367L516 369L518 371L517 377L518 379L518 377L520 378L520 380L522 380L522 384L523 383L525 386L528 383L528 381L533 378L537 378L539 380L542 378L540 374L543 373L554 376L561 381L566 380L566 378L568 378L568 382L570 382L575 377L577 381L577 387L583 385L584 383L589 383L591 382L590 381L591 382L598 377L602 379L604 377L604 373L600 366L603 362L601 360L598 360L593 354L588 355L586 351L583 352L582 350L580 352L580 350L578 350L577 348L577 343L574 345L571 343L562 344L552 340L547 332zM524 367L524 367zM546 332L546 333zM565 344L566 344zM568 378L568 378z"/><path class="leaflet-interactive" stroke="#333" stroke-opacity="1" stroke-width="0.5" stroke-linecap="round" stroke-linejoin="round" stroke-dasharray="1,6" fill="#a9bfe8" fill-opacity="0.2" fill-rule="evenodd" d="M558 442L559 437L565 437L565 439L568 440L568 435L571 433L573 433L574 435L578 435L580 432L580 427L581 425L583 425L580 424L581 420L578 418L579 410L575 408L577 402L580 401L580 399L583 396L581 394L582 391L579 387L576 386L577 380L575 378L570 382L568 382L568 378L566 378L566 380L561 381L555 376L550 376L543 373L540 374L542 378L541 379L539 380L537 378L533 378L528 381L526 386L527 392L525 393L527 393L527 405L529 405L521 413L529 413L528 415L530 417L527 418L528 421L526 423L528 423L528 426L532 428L534 424L536 424L535 426L538 427L542 422L549 423L548 427L551 428L549 434L545 439L546 440L549 437L551 439L552 444L554 442L557 442zM529 417L529 417z"/><path class="leaflet-interactive" stroke="#333" stroke-opacity="1" stroke-width="0.5" stroke-linecap="round" stroke-linejoin="round" stroke-dasharray="1,6" fill="#4c74be" fill-opacity="0.2" fill-rule="evenodd" d="M575 474L577 468L576 467L579 471L583 469L585 469L585 471L588 467L590 470L593 466L597 468L599 466L601 467L608 465L609 462L612 461L613 457L614 458L616 456L613 451L614 449L611 445L612 443L609 444L607 442L608 441L606 442L601 440L600 445L597 442L595 442L590 443L590 445L587 444L585 446L582 443L585 441L586 438L588 438L586 434L580 436L581 434L574 435L570 433L569 435L567 435L569 437L569 440L567 440L564 437L560 437L556 444L558 446L558 448L556 449L557 452L553 454L553 456L551 456L551 464L546 469L545 468L543 470L544 473L540 475L539 474L539 478L536 477L533 481L532 480L533 483L531 491L535 498L539 498L541 496L540 492L539 493L537 489L539 486L546 483L558 481L558 479L561 480L565 479L566 477L569 478L570 475L571 478L575 474zM614 459L616 459L615 458zM567 479L566 482L567 480zM563 481L565 481L563 481zM583 476L583 476zM539 486L541 488L542 486L539 486zM562 480L563 480zM540 488L539 487L537 489L540 490L541 488zM577 477L577 476zM577 477L577 477zM570 478L570 478zM578 471L578 471zM582 476L582 476zM582 477L581 476zM612 491L611 492L613 492L613 494L612 491zM569 478L569 478zM539 492L539 492zM542 489L542 490zM541 497L541 496zM602 487L603 488L602 487zM602 489L602 489zM601 467L601 467zM601 467L601 467z"/><path class="leaflet-interactive" stroke="#333" stroke-opacity="1" stroke-width="0.5" stroke-linecap="round" stroke-linejoin="round" stroke-dasharray="1,6" fill="#a9bfe8" fill-opacity="0.2" fill-rule="evenodd" d="M529 426L526 430L522 430L524 430L523 433L521 431L519 435L516 432L512 437L509 438L508 435L507 436L503 432L501 432L501 435L499 437L492 439L489 444L481 439L475 444L472 442L472 445L474 447L479 446L481 451L490 450L491 457L487 457L485 459L486 460L484 460L484 462L488 465L491 464L493 466L499 466L495 471L497 473L497 477L498 476L505 481L506 480L516 482L519 480L524 481L525 484L532 483L534 478L538 478L538 474L542 474L542 470L543 471L543 469L547 468L551 464L550 459L551 456L553 456L553 454L557 452L556 449L558 447L558 442L554 442L552 444L550 437L546 440L545 439L550 433L549 430L551 429L548 427L549 424L546 422L542 422L538 427L535 426L535 424L532 426L533 428L529 426zM479 440L479 440zM524 488L524 488z"/><path class="leaflet-interactive" stroke="#333" stroke-opacity="1" stroke-width="0.5" stroke-linecap="round" stroke-linejoin="round" stroke-dasharray="1,6" fill="#4c74be" fill-opacity="0.2" fill-rule="evenodd" d="M536 500L531 500L525 503L519 509L519 519L530 523L536 520L538 517L540 517L542 509L546 505L546 500L536 500zM560 689L560 688zM572 640L573 639L572 640zM557 689L558 689zM551 536L552 535L551 536zM622 558L624 559L622 558zM560 688L560 688zM554 546L555 546zM553 546L552 547L554 545zM579 646L582 647L586 643L585 642L579 646zM580 632L580 632zM580 632L580 632zM557 545L557 544zM554 543L555 543zM560 632L559 632zM578 649L578 649zM582 633L583 633zM560 537L560 537zM588 615L588 614zM601 622L601 621zM587 619L588 619zM577 646L578 646zM528 649L534 647L529 648zM606 632L606 631zM563 549L564 548L562 548zM563 632L564 632zM585 609L587 609L586 608zM562 545L563 545zM608 614L609 614zM561 538L561 537zM552 543L552 543zM597 620L597 619zM588 639L589 640L588 639zM586 640L587 640zM593 637L594 637zM579 642L579 641zM596 626L597 625zM608 628L609 628zM576 630L576 630zM588 607L589 606L588 607zM587 602L587 601zM590 609L591 608zM552 543L553 543zM579 632L579 632zM534 643L535 642L534 643zM611 601L612 602L611 601zM554 542L554 542zM563 543L564 542L563 543zM555 548L555 548zM578 618L579 619L578 617zM589 640L589 640zM609 622L610 622zM595 616L595 616zM612 613L613 613zM588 547L588 546zM603 626L603 627zM576 628L577 628zM588 646L588 646zM586 610L586 609zM623 610L623 609zM583 616L583 615zM588 602L588 601zM610 613L611 613zM540 640L541 641L540 640zM551 636L552 635zM594 636L595 636zM571 641L572 640zM581 608L581 608zM617 615L617 615zM582 548L583 548zM541 642L542 641zM597 636L597 636zM552 647L552 646zM553 634L554 634zM540 644L540 644zM561 631L562 631zM608 621L608 621zM556 641L558 641L557 640zM585 553L586 553zM591 606L592 606zM581 548L582 548zM603 618L604 617zM617 611L619 611L618 610zM590 650L590 651zM567 631L567 631zM554 646L554 645zM560 632L560 632zM563 667L564 667zM587 632L588 631L587 632zM590 642L590 642zM568 637L568 637zM576 654L576 654zM611 544L611 544zM618 618L618 617zM569 507L568 507zM585 548L585 548zM578 511L578 510zM565 675L565 675zM553 643L553 642zM560 632L561 631zM567 643L568 643zM564 670L564 670zM563 669L563 668zM596 573L596 572zM575 616L576 616zM578 555L579 555zM568 676L568 676zM564 675L564 675zM561 669L562 669zM560 540L560 539zM560 552L560 552zM564 672L564 671zM563 668L563 667zM571 661L571 661zM605 623L605 623zM591 647L592 647zM552 644L553 643zM579 550L580 550zM591 548L590 549zM611 630L611 630zM565 544L565 543zM548 502L548 502zM600 613L601 613zM617 610L617 610zM565 545L565 544zM600 612L601 613zM563 624L564 624zM587 553L587 553zM618 606L618 607zM622 607L622 607zM582 626L582 626zM588 622L588 622zM564 665L564 665z"/><path class="leaflet-interactive" stroke="#333" stroke-opacity="1" stroke-width="0.5" stroke-linecap="round" stroke-linejoin="round" stroke-dasharray="1,6" fill="#a9bfe8" fill-opacity="0.2" fill-rule="evenodd" d="M493 394L495 394L494 391L496 393L495 395L497 395L499 393L498 391L502 389L505 390L505 386L509 385L510 388L514 387L517 393L519 393L518 396L519 397L520 394L520 398L523 399L527 393L525 393L527 391L527 388L524 385L525 384L522 383L521 379L520 380L520 378L517 377L518 372L516 369L524 366L525 368L527 368L533 363L535 363L537 359L536 356L531 354L531 352L526 352L524 349L516 346L517 347L515 349L518 352L512 359L512 363L505 365L506 366L502 374L497 375L495 371L492 372L487 370L484 373L486 377L484 377L484 379L481 380L483 383L482 384L486 384L486 388L492 390L493 394zM524 367L524 367zM484 373L484 373zM524 367L524 367zM501 374L501 374z"/><path class="leaflet-interactive" stroke="#333" stroke-opacity="1" stroke-width="0.5" stroke-linecap="round" stroke-linejoin="round" stroke-dasharray="1,6" fill="#4c74be" fill-opacity="0.2" fill-rule="evenodd" d="M434 411L434 413L437 416L436 417L438 417L437 420L439 424L440 423L445 426L450 422L452 424L456 420L453 413L454 410L461 403L460 400L465 397L465 392L470 393L469 396L472 398L470 400L473 403L480 400L481 405L492 404L493 403L491 399L489 400L485 396L485 394L488 393L489 391L493 395L493 393L491 389L486 388L486 384L482 384L483 383L481 381L486 376L486 374L484 373L487 369L491 372L496 371L497 375L502 374L506 367L505 365L509 363L510 364L512 362L512 358L518 352L515 349L517 347L516 346L518 346L510 346L508 343L503 343L501 341L502 340L498 338L494 340L487 337L485 339L482 336L483 338L481 340L472 339L469 336L471 336L471 330L469 330L467 326L460 324L459 325L454 317L445 322L449 327L449 329L447 329L446 332L445 331L443 333L441 331L443 329L441 327L441 331L439 333L437 333L436 331L433 332L435 339L429 339L427 341L425 338L422 340L422 336L420 336L419 334L417 338L414 336L412 337L412 335L407 332L403 321L398 320L397 318L394 319L395 321L391 323L391 327L395 329L392 333L393 334L391 338L401 344L405 354L408 356L407 358L405 358L409 365L409 379L412 397L414 399L414 395L417 390L422 395L421 396L423 397L421 399L425 405L425 403L428 402L432 410L434 411zM492 372L492 372zM500 374L500 374zM484 372L484 372z"/><path class="leaflet-interactive" stroke="#333" stroke-opacity="1" stroke-width="0.5" stroke-linecap="round" stroke-linejoin="round" stroke-dasharray="1,6" fill="#a9bfe8" fill-opacity="0.2" fill-rule="evenodd" d="M526 395L523 399L520 398L521 396L518 395L519 394L518 392L516 392L514 387L511 388L509 387L509 385L505 385L505 389L503 391L502 389L498 391L498 395L495 395L496 392L494 390L495 393L493 395L489 391L485 394L485 396L489 400L492 400L492 404L483 404L481 405L480 409L479 408L477 410L473 410L472 408L468 410L466 409L462 413L464 415L463 419L466 420L468 418L471 418L474 421L472 423L473 424L470 431L472 433L473 432L472 434L476 437L475 436L472 442L474 444L478 442L480 439L483 440L484 442L489 443L491 442L492 439L501 436L500 435L503 432L507 436L508 435L509 438L512 437L514 435L513 434L515 434L515 432L519 435L521 431L523 433L524 430L522 430L526 430L529 426L528 423L526 423L528 421L527 418L529 416L529 412L524 412L522 414L521 413L525 408L529 406L527 404L528 397L526 397L526 395zM529 416L528 416zM529 417L529 417z"/><path class="leaflet-interactive" stroke="#333" stroke-opacity="1" stroke-width="0.5" stroke-linecap="round" stroke-linejoin="round" stroke-dasharray="1,6" fill="#4c74be" fill-opacity="0.2" fill-rule="evenodd" d="M481 405L480 400L473 403L470 401L471 398L469 394L471 393L465 393L465 396L460 399L460 404L456 409L454 409L453 413L456 420L452 424L450 423L451 422L442 426L440 423L439 424L437 420L438 417L436 417L437 416L432 410L430 404L428 402L425 403L425 405L423 403L421 400L421 398L423 398L421 396L422 395L417 390L415 392L416 393L414 395L414 399L412 397L411 385L409 385L410 388L408 389L408 391L407 388L405 388L405 394L407 397L405 399L403 399L401 396L400 397L401 405L403 407L403 405L406 406L406 429L404 428L403 431L401 431L400 434L396 436L396 441L393 442L393 446L395 448L393 452L394 453L400 450L408 450L406 452L409 460L408 461L410 463L413 462L416 465L414 465L415 466L411 474L418 475L421 477L420 478L421 480L423 480L423 483L429 482L433 479L434 484L440 487L442 485L440 484L441 478L438 473L440 472L440 470L446 471L449 467L455 471L459 467L461 469L464 468L466 470L468 466L471 468L476 465L476 462L481 460L483 460L484 462L484 460L486 460L485 459L487 457L491 457L490 450L483 451L480 449L479 446L474 447L472 445L472 441L476 436L473 434L473 432L472 433L470 431L470 429L471 430L474 421L471 417L470 419L463 419L464 415L462 413L466 408L467 410L472 408L472 410L476 410L479 408L480 409L481 406z"/><path class="leaflet-interactive" stroke="#333" stroke-opacity="1" stroke-width="0.5" stroke-linecap="round" stroke-linejoin="round" stroke-dasharray="1,6" fill="#a9bfe8" fill-opacity="0.2" fill-rule="evenodd" d="M304 292L298 289L297 290L295 288L294 289L291 287L285 287L265 291L261 297L260 296L254 298L253 296L245 299L243 302L229 302L227 298L224 299L221 297L220 300L218 300L217 303L214 304L206 302L196 303L197 305L193 308L194 309L192 310L191 314L185 316L182 315L182 317L178 321L178 326L185 336L185 341L182 344L179 341L179 339L175 341L175 346L179 350L179 357L184 362L190 362L195 368L196 367L205 371L206 375L208 375L207 374L210 369L216 371L217 370L217 372L220 375L225 379L230 380L232 384L235 386L239 384L242 390L244 390L248 394L251 392L252 397L258 397L262 402L263 399L266 402L270 400L275 403L286 403L286 401L287 402L292 399L294 401L293 408L296 411L298 409L297 406L304 398L308 398L314 401L315 400L319 403L322 400L324 401L326 404L325 407L328 407L331 410L331 416L337 414L348 415L356 406L367 402L368 399L373 397L381 399L383 402L386 402L388 404L391 401L391 397L393 397L392 396L394 394L399 399L401 397L400 396L402 397L403 400L406 397L405 388L407 388L408 391L409 390L408 389L410 385L410 374L408 366L409 365L405 359L405 357L408 357L404 353L400 344L396 341L390 341L390 346L385 349L383 348L385 352L381 352L380 349L378 349L378 354L375 351L373 353L371 351L370 352L368 348L369 346L367 346L367 344L365 345L366 344L360 340L356 342L355 341L354 343L350 341L347 342L344 339L333 339L331 336L327 336L324 333L317 334L311 331L310 329L308 329L307 325L303 321L305 318L305 310L302 309L301 302L304 301L305 296L300 295L300 293L303 292z"/><path class="leaflet-interactive" stroke="#333" stroke-opacity="1" stroke-width="0.5" stroke-linecap="round" stroke-linejoin="round" stroke-dasharray="1,6" fill="#4c74be" fill-opacity="0.2" fill-rule="evenodd" d="M539 313L537 312L541 300L539 280L544 271L540 263L541 260L543 260L545 257L546 250L548 249L549 246L547 242L542 246L537 244L536 247L533 246L534 248L523 260L522 262L524 264L522 266L521 264L521 270L513 270L509 267L505 269L503 274L504 281L509 282L512 285L519 288L519 302L517 304L509 303L508 304L510 308L506 309L503 309L500 306L495 306L496 311L493 313L497 317L495 317L496 319L494 321L496 326L495 328L487 328L486 331L489 332L487 336L483 336L484 339L487 337L494 340L498 338L501 339L503 343L505 341L511 346L517 345L522 349L530 352L530 340L535 341L536 338L532 336L531 333L529 333L531 331L540 333L541 331L541 333L543 334L546 331L546 327L542 323L542 319L539 317L539 313zM546 328L546 329zM490 338L490 338z"/><path class="leaflet-interactive" stroke="#333" stroke-opacity="1" stroke-width="0.5" stroke-linecap="round" stroke-linejoin="round" stroke-dasharray="1,6" fill="#a9bfe8" fill-opacity="0.2" fill-rule="evenodd" d="M495 297L495 301L493 304L491 301L488 302L490 301L487 301L487 299L483 297L481 294L484 291L480 284L481 281L477 279L475 276L473 276L474 273L468 273L463 268L460 267L460 260L465 256L466 252L469 249L467 244L460 245L455 249L449 247L444 248L442 249L444 252L441 255L437 254L434 251L435 250L430 250L430 244L426 245L424 241L417 237L414 237L418 236L420 233L423 232L424 226L421 222L411 223L411 225L409 224L407 225L407 227L406 224L402 227L402 222L394 214L396 211L389 193L380 194L377 196L375 198L377 205L367 212L365 209L361 213L359 213L351 221L350 226L340 227L338 241L334 247L335 250L338 248L342 248L343 252L351 252L350 253L352 255L356 254L359 259L366 259L369 261L372 259L378 263L380 261L383 262L383 258L387 256L386 250L388 247L399 254L401 250L404 251L407 249L411 251L410 252L419 260L423 262L421 258L422 257L426 261L430 263L431 262L431 264L434 267L439 267L445 271L451 278L449 278L449 280L452 283L450 283L455 290L455 294L453 296L452 295L451 297L453 300L452 301L450 299L448 302L447 301L448 304L443 310L443 313L446 316L442 320L432 316L429 319L434 324L434 326L438 325L439 328L442 327L443 329L441 331L443 333L445 331L446 332L447 329L449 329L445 322L451 320L450 319L453 317L457 320L457 324L468 327L471 331L470 336L473 339L481 340L483 336L487 336L489 332L486 331L487 328L496 327L494 322L497 316L493 314L495 311L495 307L499 306L505 309L510 307L508 304L509 303L517 304L519 302L517 295L520 293L520 291L518 287L507 282L502 277L497 277L497 282L493 286L495 286L495 290L500 291L500 296L498 298L495 297zM490 300L490 300zM453 288L453 289zM490 301L490 302zM495 297L495 297z"/><path class="leaflet-interactive" stroke="#333" stroke-opacity="1" stroke-width="0.5" stroke-linecap="round" stroke-linejoin="round" stroke-dasharray="1,6" fill="#4c74be" fill-opacity="0.2" fill-rule="evenodd" d="M453 288L453 286L450 283L452 283L449 279L450 276L443 269L442 270L439 267L436 268L431 264L431 262L430 263L429 261L425 261L422 257L421 258L423 262L419 260L410 252L411 251L407 249L405 251L402 250L399 254L388 247L386 249L386 257L385 256L383 258L383 261L379 261L379 263L375 262L372 259L370 261L366 259L359 260L357 254L350 254L351 253L349 252L344 252L343 248L338 248L332 251L315 255L312 258L308 258L310 262L312 260L313 269L320 273L322 279L318 281L317 280L315 283L316 286L319 286L320 292L317 293L308 290L306 292L301 293L300 295L305 296L304 301L301 302L302 308L305 309L305 319L303 321L307 325L307 327L315 333L324 333L327 336L331 336L333 339L338 338L342 340L343 339L347 342L350 341L354 343L360 339L363 343L369 346L368 349L370 352L374 351L378 354L377 351L379 349L383 353L384 348L388 348L390 344L391 345L390 341L395 341L391 339L391 335L393 335L392 333L395 329L391 327L391 323L393 323L395 321L394 319L397 318L399 320L403 320L407 332L411 334L412 337L413 336L418 338L419 335L422 336L422 340L424 338L426 338L428 341L435 339L433 332L436 331L436 333L439 333L441 329L438 325L435 326L434 323L431 322L430 317L431 316L442 320L446 316L443 313L443 309L448 305L447 301L448 302L449 299L452 301L453 300L451 297L454 296L454 292L456 290L453 289z"/><path class="leaflet-interactive" stroke="#333" stroke-opacity="1" stroke-width="0.5" stroke-linecap="round" stroke-linejoin="round" stroke-dasharray="1,6" fill="#a9bfe8" fill-opacity="0.2" fill-rule="evenodd" d="M503 278L505 269L508 268L503 263L495 261L500 251L497 245L492 247L488 253L488 261L486 263L486 268L470 273L474 273L473 276L480 279L482 283L480 283L480 285L484 291L481 294L493 304L495 302L495 297L497 298L500 296L500 292L496 290L493 285L494 286L495 283L497 282L495 280L496 277L503 278zM490 301L488 301L490 301zM490 301L490 301z"/><path class="leaflet-interactive" stroke="#333" stroke-opacity="1" stroke-width="0.5" stroke-linecap="round" stroke-linejoin="round" stroke-dasharray="1,6" fill="#4c74be" fill-opacity="0.2" fill-rule="evenodd" d="M380 194L374 186L370 174L368 174L369 171L363 170L347 159L324 157L318 155L316 153L315 147L319 142L317 137L319 135L319 131L313 121L312 116L308 113L308 111L304 112L301 108L296 109L295 107L293 107L291 103L284 98L285 97L282 94L282 88L278 90L273 89L270 91L270 97L266 101L265 100L258 103L256 107L258 122L255 125L253 125L250 128L248 126L238 126L229 122L228 123L219 147L219 150L223 153L222 156L219 154L216 155L212 153L208 155L207 154L205 156L199 156L192 160L198 164L198 174L202 182L202 188L198 190L200 192L198 192L195 196L197 202L195 202L195 204L189 208L178 212L178 214L177 213L173 215L168 219L169 220L158 220L156 222L155 227L152 230L151 229L145 231L143 227L144 226L139 229L135 228L135 231L125 235L123 238L124 242L119 245L123 250L122 255L124 257L129 255L135 259L135 270L138 273L138 275L130 277L132 279L135 278L135 280L141 280L142 283L146 283L148 286L147 291L150 295L149 296L154 295L154 297L158 299L164 301L171 301L173 311L180 316L192 314L194 309L193 308L198 301L202 303L209 302L214 304L217 303L216 301L218 301L221 297L224 299L227 298L229 302L243 302L246 299L253 296L256 298L260 297L263 295L265 291L270 289L272 290L278 287L279 289L291 287L302 292L306 292L308 290L317 293L320 292L319 287L315 284L315 282L317 280L318 281L322 279L322 277L320 273L314 269L313 260L310 262L308 259L312 258L315 255L326 253L333 250L338 241L340 227L350 226L351 221L359 213L361 213L365 209L367 211L375 207L377 205L375 199L377 196z"/><path class="leaflet-interactive" stroke="#333" stroke-opacity="1" stroke-width="0.5" stroke-linecap="round" stroke-linejoin="round" stroke-dasharray="1,6" fill="#a9bfe8" fill-opacity="0.2" fill-rule="evenodd" d="M653 471L656 473L656 477L658 478L659 470L665 462L667 451L670 446L669 442L671 439L666 435L659 440L651 454L649 455L649 463L652 470zM700 428L700 427zM688 430L688 430zM644 457L644 458zM690 428L690 427zM643 456L642 457L643 456zM643 459L643 460zM643 456L644 456zM672 431L672 431zM665 468L666 468zM666 475L665 476L667 476L666 475zM672 433L672 433zM642 461L642 461zM652 472L653 472z"/><path class="leaflet-interactive" stroke="#333" stroke-opacity="1" stroke-width="0.5" stroke-linecap="round" stroke-linejoin="round" stroke-dasharray="1,6" fill="#4c74be" fill-opacity="0.2" fill-rule="evenodd" d="M580 470L578 474L581 472L583 474L583 472L585 472L582 471L584 470L581 470zM582 474L581 473L582 474zM584 472L584 472zM584 472L584 472zM584 472L584 472zM584 473L584 473zM584 472L584 472zM584 472L584 472zM584 473L584 473z"/><path class="leaflet-interactive" stroke="#333" stroke-opacity="1" stroke-width="0.5" stroke-linecap="round" stroke-linejoin="round" stroke-dasharray="1,6" fill="#a9bfe8" fill-opacity="0.2" fill-rule="evenodd" d="M575 475L575 475zM575 474L575 474z"/><path class="leaflet-interactive" stroke="#333" stroke-opacity="1" stroke-width="0.5" stroke-linecap="round" stroke-linejoin="round" stroke-dasharray="1,6" fill="#4c74be" fill-opacity="0.2" fill-rule="evenodd" d="M677 458L680 444L677 458zM662 491L670 480L662 491zM642 525L649 512L642 525zM638 560L638 548L638 560zM633 605L632 608L637 596L635 600zM598 651L606 642L598 651zM561 693L555 694L567 691L563 692zM515 664L515 652L515 664zM536 603L535 604L538 600L538 594L537 601zM533 558L527 546L532 555z"/></g></svg>